<svg width="512" height="174" viewBox="0 0 512 174" fill="none" xmlns="http://www.w3.org/2000/svg">
<path d="M93.0884 90.0191V118.147H63.1719V26.853H98.0473C115.011 26.853 127.584 29.3461 135.768 34.3321C143.952 39.264 148.044 47.0412 148.044 57.6637C148.044 67.5275 144.304 75.386 136.825 81.2392C129.346 87.0924 119.59 90.0191 107.559 90.0191H93.0884ZM92.3567 47.258V71.0774H101.299C112.897 71.0774 118.696 67.0126 118.696 58.8832C118.696 51.1331 113.006 47.258 101.624 47.258H92.3567Z" fill="white"/>
<path d="M242.696 118.147H169.124V26.853H199.285V95.3845H242.696V118.147Z" fill="white"/>
<path d="M319.626 102.782H302.491H286.865L281.418 118.147H250.932L287.759 26.853H319.139L356.046 118.147H325.317L319.626 102.782ZM286.865 102.782H302.491H319.626L303.367 52.4609L286.865 102.782Z" fill="white"/>
<path d="M448.829 48.8839H416.799V118.147H386.964V48.8839H354.852V26.853H448.829V48.8839Z" fill="white"/>
<path d="M339.329 64.9652L274.729 96.251L258.342 90.6003L339.329 64.9652Z" fill="#FFBF00"/>
<path d="M274.729 96.251L339.369 64.9057L276.842 105.679L274.729 96.251Z" fill="#64181F"/>
<path d="M282.163 102.131L279.818 101.219L276.841 105.932L282.163 102.131Z" fill="#E69501"/>
<path d="M339.547 64.8519L301.676 109.733L279.818 101.219L339.547 64.8519Z" fill="#FFBF00"/>
<path d="M69.6953 132.521C71.2686 132.521 72.4826 132.909 73.3373 133.686C74.2113 134.444 74.6484 135.532 74.6484 136.949C74.6484 138.62 74.0948 139.941 72.9876 140.912C71.8805 141.864 70.3848 142.34 68.5007 142.34H66.8399V142.514L66.9565 147.147H64.1594L64.276 142.777L64.1594 132.55L69.6953 132.521ZM69.1999 140.242C70.8704 139.892 71.7056 138.872 71.7056 137.183C71.7056 136.347 71.4726 135.726 71.0064 135.318C70.5402 134.91 69.8215 134.687 68.8503 134.648L66.9565 134.706L66.8691 140.184L69.1999 140.242ZM85.0365 141.32C86.1631 143.01 87.4354 144.729 88.8533 146.477L88.8242 146.827C87.8142 147.118 86.9304 147.293 86.1728 147.351L85.7358 147.089C84.3178 144.797 83.3175 143.126 82.7348 142.077L80.1708 142.107V142.514L80.2873 147.147H77.4903L77.6068 142.777L77.4903 132.55L83.0261 132.521C84.5995 132.521 85.8135 132.9 86.6681 133.657C87.5422 134.395 87.9793 135.444 87.9793 136.804C87.9793 137.756 87.717 138.62 87.1926 139.397C86.6876 140.174 85.9689 140.815 85.0365 141.32ZM80.1999 139.863L82.7348 139.95C84.2693 139.504 85.0365 138.542 85.0365 137.066C85.0365 136.27 84.8034 135.687 84.3373 135.318C83.8711 134.929 83.1621 134.716 82.2103 134.677L80.2873 134.735L80.1999 139.863ZM97.3916 132.346C99.5282 132.346 101.179 132.977 102.345 134.24C103.53 135.483 104.122 137.241 104.122 139.513C104.122 142.039 103.491 143.981 102.228 145.341C100.985 146.7 99.2077 147.38 96.8963 147.38C94.7402 147.38 93.0794 146.739 91.914 145.457C90.7486 144.175 90.1658 142.359 90.1658 140.009C90.1658 137.561 90.7874 135.677 92.0305 134.356C93.2931 133.016 95.0801 132.346 97.3916 132.346ZM97.1293 134.648C95.7308 134.648 94.7013 135.046 94.0409 135.842C93.3999 136.619 93.0794 137.892 93.0794 139.659C93.0794 141.621 93.3999 143.019 94.0409 143.855C94.6819 144.69 95.7017 145.108 97.1002 145.108C98.5182 145.108 99.5574 144.719 100.218 143.942C100.878 143.146 101.208 141.854 101.208 140.067C101.208 138.125 100.888 136.736 100.247 135.901C99.6059 135.065 98.5667 134.648 97.1293 134.648ZM113.697 132.375C115.212 132.375 116.746 132.676 118.3 133.278L117.455 135.93H117.164C116.426 135.483 115.756 135.162 115.153 134.968C114.571 134.774 113.92 134.677 113.201 134.677C111.686 134.677 110.569 135.104 109.851 135.959C109.132 136.794 108.773 138.154 108.773 140.038C108.773 141.864 109.113 143.165 109.792 143.942C110.472 144.7 111.589 145.078 113.143 145.078C113.551 145.078 113.939 145.04 114.308 144.962C114.678 144.884 115.134 144.748 115.678 144.554V143.33L115.649 141.145L118.213 140.97L118.184 142.893V146.448C116.202 147.05 114.474 147.351 112.997 147.351C110.628 147.351 108.841 146.729 107.636 145.486C106.432 144.243 105.83 142.466 105.83 140.154C105.83 137.649 106.51 135.726 107.869 134.386C109.248 133.045 111.191 132.375 113.697 132.375ZM129.297 141.32C130.424 143.01 131.696 144.729 133.114 146.477L133.085 146.827C132.075 147.118 131.191 147.293 130.433 147.351L129.996 147.089C128.578 144.797 127.578 143.126 126.995 142.077L124.431 142.107V142.514L124.548 147.147H121.751L121.867 142.777L121.751 132.55L127.287 132.521C128.86 132.521 130.074 132.9 130.929 133.657C131.803 134.395 132.24 135.444 132.24 136.804C132.24 137.756 131.978 138.62 131.453 139.397C130.948 140.174 130.229 140.815 129.297 141.32ZM124.461 139.863L126.995 139.95C128.53 139.504 129.297 138.542 129.297 137.066C129.297 136.27 129.064 135.687 128.598 135.318C128.132 134.929 127.423 134.716 126.471 134.677L124.548 134.735L124.461 139.863ZM145.346 144.816L145.55 145.02L145.316 147.147H135.964L136.08 142.777L135.964 132.55H145.404L145.579 132.783L145.375 134.91L141.674 134.764L138.761 134.793L138.703 138.581L141.5 138.61L144.035 138.523L144.18 138.756L144.005 140.912L141.267 140.825L138.673 140.854L138.644 142.514L138.703 144.904L141.412 144.933L145.346 144.816ZM153.018 132.375C154.261 132.375 155.504 132.618 156.748 133.104L156.311 135.755L155.874 135.842C154.747 134.949 153.679 134.502 152.669 134.502C151.95 134.502 151.377 134.687 150.95 135.056C150.542 135.425 150.338 135.852 150.338 136.338C150.338 136.823 150.551 137.231 150.979 137.561C151.425 137.872 152.115 138.222 153.047 138.61C153.921 138.979 154.621 139.329 155.145 139.659C155.689 139.97 156.155 140.388 156.544 140.912C156.932 141.436 157.126 142.087 157.126 142.864C157.126 143.66 156.913 144.399 156.485 145.078C156.077 145.758 155.456 146.312 154.621 146.739C153.805 147.147 152.814 147.351 151.649 147.351C150.95 147.351 150.211 147.273 149.434 147.118C148.658 146.963 147.91 146.729 147.191 146.419L147.57 143.592L147.89 143.418C148.454 143.981 149.114 144.428 149.872 144.758C150.648 145.069 151.357 145.224 151.998 145.224C152.698 145.224 153.261 145.049 153.688 144.7C154.135 144.331 154.358 143.884 154.358 143.359C154.358 142.835 154.135 142.417 153.688 142.107C153.242 141.776 152.552 141.417 151.62 141.029C150.784 140.659 150.095 140.32 149.551 140.009C149.007 139.679 148.541 139.251 148.152 138.727C147.783 138.183 147.599 137.522 147.599 136.746C147.599 135.93 147.813 135.192 148.24 134.531C148.687 133.871 149.318 133.346 150.134 132.958C150.969 132.569 151.93 132.375 153.018 132.375ZM165.04 132.375C166.283 132.375 167.527 132.618 168.77 133.104L168.333 135.755L167.896 135.842C166.769 134.949 165.701 134.502 164.691 134.502C163.972 134.502 163.399 134.687 162.972 135.056C162.564 135.425 162.36 135.852 162.36 136.338C162.36 136.823 162.573 137.231 163.001 137.561C163.447 137.872 164.137 138.222 165.069 138.61C165.943 138.979 166.643 139.329 167.167 139.659C167.711 139.97 168.177 140.388 168.566 140.912C168.954 141.436 169.148 142.087 169.148 142.864C169.148 143.66 168.935 144.399 168.507 145.078C168.1 145.758 167.478 146.312 166.643 146.739C165.827 147.147 164.836 147.351 163.671 147.351C162.972 147.351 162.233 147.273 161.456 147.118C160.68 146.963 159.932 146.729 159.213 146.419L159.592 143.592L159.912 143.418C160.476 143.981 161.136 144.428 161.894 144.758C162.671 145.069 163.379 145.224 164.02 145.224C164.72 145.224 165.283 145.049 165.71 144.7C166.157 144.331 166.38 143.884 166.38 143.359C166.38 142.835 166.157 142.417 165.71 142.107C165.264 141.776 164.574 141.417 163.642 141.029C162.806 140.659 162.117 140.32 161.573 140.009C161.029 139.679 160.563 139.251 160.175 138.727C159.805 138.183 159.621 137.522 159.621 136.746C159.621 135.93 159.835 135.192 160.262 134.531C160.709 133.871 161.34 133.346 162.156 132.958C162.991 132.569 163.952 132.375 165.04 132.375ZM175.052 142.514L175.168 147.147H172.371L172.488 142.777L172.371 132.55H175.198L175.052 142.514ZM185.684 147.147H182.334L177.41 132.55H180.265L180.673 134.386L183.995 144.496H184.14L187.87 134.531L188.278 132.55H191.046L185.684 147.147ZM202.724 144.816L202.928 145.02L202.695 147.147H193.342L193.459 142.777L193.342 132.55H202.783L202.957 132.783L202.753 134.91L199.053 134.764L196.14 134.793L196.081 138.581L198.878 138.61L201.413 138.523L201.559 138.756L201.384 140.912L198.645 140.825L196.052 140.854L196.023 142.514L196.081 144.904L198.791 144.933L202.724 144.816ZM218.006 145.049L217.802 147.147H209.702L209.819 142.777L209.702 132.55H212.557L212.412 142.514L212.441 144.816H217.831L218.006 145.049ZM229.714 144.816L229.918 145.02L229.685 147.147H220.332L220.449 142.777L220.332 132.55H229.772L229.947 132.783L229.743 134.91L226.043 134.764L223.129 134.793L223.071 138.581L225.868 138.61L228.403 138.523L228.548 138.756L228.374 140.912L225.635 140.825L223.042 140.854L223.013 142.514L223.071 144.904L225.78 144.933L229.714 144.816ZM244.525 147.147H241.699L241.32 145.341L240.795 143.738L237.532 143.709L234.618 143.738L234.065 145.195L233.657 147.147H230.889L236.337 132.55H239.601L244.525 147.147ZM240.067 141.553L237.998 135.172H237.794L235.434 141.553L237.736 141.582L240.067 141.553ZM254.768 141.32C255.894 143.01 257.166 144.729 258.584 146.477L258.555 146.827C257.545 147.118 256.661 147.293 255.904 147.351L255.467 147.089C254.049 144.797 253.049 143.126 252.466 142.077L249.902 142.107V142.514L250.018 147.147H247.221L247.338 142.777L247.221 132.55L252.757 132.521C254.331 132.521 255.545 132.9 256.399 133.657C257.273 134.395 257.71 135.444 257.71 136.804C257.71 137.756 257.448 138.62 256.924 139.397C256.419 140.174 255.7 140.815 254.768 141.32ZM249.931 139.863L252.466 139.95C254 139.504 254.768 138.542 254.768 137.066C254.768 136.27 254.535 135.687 254.068 135.318C253.602 134.929 252.893 134.716 251.941 134.677L250.018 134.735L249.931 139.863ZM273.934 142.689L274.021 147.147H270.991L264.086 136.891H263.911L263.882 142.194L263.969 147.147H261.434L261.551 142.864L261.463 132.55H264.435L271.341 142.806H271.574L271.486 132.637L274.079 132.492L273.934 142.689ZM281.002 142.514L281.119 147.147H278.322L278.438 142.777L278.322 132.55H281.148L281.002 142.514ZM298.006 142.689L298.094 147.147H295.063L288.158 136.891H287.983L287.954 142.194L288.042 147.147H285.507L285.623 142.864L285.536 132.55H288.508L295.413 142.806H295.646L295.559 132.637L298.152 132.492L298.006 142.689ZM308.61 132.375C310.125 132.375 311.659 132.676 313.213 133.278L312.368 135.93H312.077C311.339 135.483 310.669 135.162 310.067 134.968C309.484 134.774 308.833 134.677 308.115 134.677C306.6 134.677 305.483 135.104 304.764 135.959C304.045 136.794 303.686 138.154 303.686 140.038C303.686 141.864 304.026 143.165 304.706 143.942C305.386 144.7 306.502 145.078 308.056 145.078C308.464 145.078 308.853 145.04 309.222 144.962C309.591 144.884 310.047 144.748 310.591 144.554V143.33L310.562 141.145L313.126 140.97L313.097 142.893V146.448C311.116 147.05 309.387 147.351 307.911 147.351C305.541 147.351 303.754 146.729 302.55 145.486C301.345 144.243 300.743 142.466 300.743 140.154C300.743 137.649 301.423 135.726 302.783 134.386C304.162 133.045 306.104 132.375 308.61 132.375ZM332.577 147.147H329.751L329.372 145.341L328.848 143.738L325.584 143.709L322.671 143.738L322.117 145.195L321.709 147.147H318.941L324.39 132.55H327.653L332.577 147.147ZM328.119 141.553L326.051 135.172H325.847L323.487 141.553L325.788 141.582L328.119 141.553ZM342.907 139.572C345.005 140.018 346.054 141.164 346.054 143.01C346.054 145.826 343.791 147.235 339.265 147.235C337.886 147.235 336.556 147.205 335.274 147.147L335.39 142.777L335.274 132.55L340.402 132.521C341.917 132.521 343.102 132.832 343.956 133.453C344.811 134.075 345.238 134.968 345.238 136.134C345.238 136.93 345.034 137.629 344.626 138.231C344.218 138.814 343.645 139.261 342.907 139.572ZM342.325 136.512C342.325 135.833 342.101 135.347 341.654 135.056C341.208 134.764 340.47 134.619 339.44 134.619H338.042L337.983 138.669L340.373 138.756C341.033 138.601 341.519 138.348 341.829 137.998C342.16 137.649 342.325 137.153 342.325 136.512ZM339.702 145.195C340.829 145.195 341.684 145.001 342.266 144.612C342.868 144.224 343.17 143.651 343.17 142.893C343.17 142.291 342.966 141.825 342.558 141.495C342.15 141.145 341.528 140.902 340.693 140.766L337.954 140.795L337.925 142.514L337.983 145.108C338.585 145.166 339.159 145.195 339.702 145.195ZM351.826 142.514L351.942 147.147H349.145L349.262 142.777L349.145 132.55H351.971L351.826 142.514ZM364.547 145.049L364.343 147.147H356.243L356.359 142.777L356.243 132.55H359.098L358.952 142.514L358.982 144.816H364.372L364.547 145.049ZM369.553 142.514L369.67 147.147H366.873L366.989 142.777L366.873 132.55H369.699L369.553 142.514ZM383.36 132.783L383.185 135.027L380.359 134.823H379.135L379.077 142.514L379.164 147.147H376.367L376.483 142.777L376.425 134.823H375.231L372.346 135.027L372.142 134.793L372.346 132.55H383.214L383.36 132.783ZM391.704 143.068L391.821 147.147H389.024L389.169 143.068L389.14 142.252L384.187 132.55H387.188L387.509 133.482L390.422 139.28H390.626L393.831 133.599L394.239 132.55H397.182L391.733 142.194L391.704 143.068ZM413.223 132.783L413.048 135.027L410.222 134.823H408.998L408.94 142.514L409.027 147.147H406.23L406.347 142.777L406.289 134.823H405.094L402.209 135.027L402.006 134.793L402.209 132.55H413.077L413.223 132.783ZM425.239 144.816L425.443 145.02L425.21 147.147H415.858L415.974 142.777L415.858 132.55H425.298L425.473 132.783L425.269 134.91L421.568 134.764L418.655 134.793L418.596 138.581L421.393 138.61L423.928 138.523L424.074 138.756L423.899 140.912L421.16 140.825L418.567 140.854L418.538 142.514L418.596 144.904L421.306 144.933L425.239 144.816ZM432.912 132.375C434.155 132.375 435.398 132.618 436.641 133.104L436.204 135.755L435.767 135.842C434.641 134.949 433.572 134.502 432.562 134.502C431.844 134.502 431.271 134.687 430.843 135.056C430.435 135.425 430.232 135.852 430.232 136.338C430.232 136.823 430.445 137.231 430.872 137.561C431.319 137.872 432.009 138.222 432.941 138.61C433.815 138.979 434.515 139.329 435.039 139.659C435.583 139.97 436.049 140.388 436.437 140.912C436.826 141.436 437.02 142.087 437.02 142.864C437.02 143.66 436.807 144.399 436.379 145.078C435.971 145.758 435.35 146.312 434.515 146.739C433.699 147.147 432.708 147.351 431.543 147.351C430.843 147.351 430.105 147.273 429.328 147.118C428.551 146.963 427.804 146.729 427.085 146.419L427.464 143.592L427.784 143.418C428.347 143.981 429.008 144.428 429.765 144.758C430.542 145.069 431.251 145.224 431.892 145.224C432.592 145.224 433.155 145.049 433.582 144.7C434.029 144.331 434.252 143.884 434.252 143.359C434.252 142.835 434.029 142.417 433.582 142.107C433.135 141.776 432.446 141.417 431.513 141.029C430.678 140.659 429.989 140.32 429.445 140.009C428.901 139.679 428.435 139.251 428.046 138.727C427.677 138.183 427.493 137.522 427.493 136.746C427.493 135.93 427.706 135.192 428.134 134.531C428.58 133.871 429.212 133.346 430.028 132.958C430.863 132.569 431.824 132.375 432.912 132.375ZM449.431 132.783L449.256 135.027L446.43 134.823H445.207L445.148 142.514L445.236 147.147H442.439L442.555 142.777L442.497 134.823H441.302L438.418 135.027L438.214 134.793L438.418 132.55H449.286L449.431 132.783Z" fill="white"/>
</svg>
